<?xml version="1.0"?>
<svg xmlns="http://www.w3.org/2000/svg" xmlns:xlink="http://www.w3.org/1999/xlink" width="48" height="48" viewBox="0 0 48 48" version="1.1">
	<g class="glyphLine" fill="white" transform="translate(18 18)">
		<path d="M -0.424264 11.5757C -0.658579 11.8101 -0.658579 12.1899 -0.424264 12.4243C -0.189949 12.6586 0.189949 12.6586 0.424264 12.4243L -0.424264 11.5757ZM 12.4243 0.424264C 12.6586 0.189949 12.6586 -0.189949 12.4243 -0.424264C 12.1899 -0.658579 11.8101 -0.658579 11.5757 -0.424264L 12.4243 0.424264ZM 11.5757 12.4243C 11.8101 12.6586 12.1899 12.6586 12.4243 12.4243C 12.6586 12.1899 12.6586 11.8101 12.4243 11.5757L 11.5757 12.4243ZM 0.424264 -0.424264C 0.189949 -0.658579 -0.189949 -0.658579 -0.424264 -0.424264C -0.658579 -0.189949 -0.658579 0.189949 -0.424264 0.424264L 0.424264 -0.424264ZM 12.4243 11.5757L 6.42426 5.57574L 5.57574 6.42426L 11.5757 12.4243L 12.4243 11.5757ZM 6.42426 5.57574L 0.424264 -0.424264L -0.424264 0.424264L 5.57574 6.42426L 6.42426 5.57574ZM 0.424264 12.4243L 6.42426 6.42426L 5.57574 5.57574L -0.424264 11.5757L 0.424264 12.4243ZM 6.42426 6.42426L 12.4243 0.424264L 11.5757 -0.424264L 5.57574 5.57574L 6.42426 6.42426Z"/>
	</g>
</svg>
