<svg width="52" height="52" viewBox="0 0 52 52" fill="none" xmlns="http://www.w3.org/2000/svg">
<circle cx="26" cy="26" r="26" fill="#E9F7FD"/>
<path fill-rule="evenodd" clip-rule="evenodd" d="M52 26C52 40.6346 40 52 26 52C12 52 0 40.6346 0 26H40.4305C43.8255 26 46.1575 24.2384 45.6702 22.2057C43.2503 23.4834 35.4412 23.6572 32.3251 17.6859C32.159 17.3677 32.4012 16.9984 32.7592 16.9727C34.6941 16.8336 36.3145 16.1877 37.7933 15.5981C38.6972 15.2378 39.5482 14.8986 40.3858 14.709C40.2642 14.1238 40.1819 13.5168 40.0946 12.8731C39.9278 11.6439 39.7428 10.2804 39.2313 8.67775C39.1258 8.34719 39.3681 8.00047 39.7144 8.02156C47.7519 8.51114 52 17.2556 52 26Z" fill="#14AFE9"/>
<path fill-rule="evenodd" clip-rule="evenodd" d="M46.1304 42.4562C41.5736 44.7244 36.4357 46 31 46C17.2132 46 5.34291 37.7941 0.00695682 26H0C0 40.3594 11.6406 52 26 52C34.1154 52 41.3624 48.2819 46.1304 42.4562Z" fill="#8BD5F0"/>
<circle cx="20.5953" cy="33.3447" r="1.43684" fill="#36386C"/>
</svg>
