<svg width="64" height="64" fill="none" xmlns="http://www.w3.org/2000/svg">
  <path d="M32 0A32 32 0 0 0 0 32h64A32 32 0 0 0 32 0Z" fill="#E9F7FD"/>
  <path d="M32 64a32 32 0 0 0 32-32H0a32 32 0 0 0 32 32Z" fill="#8BD5F0"/>
  <path fill-rule="evenodd" clip-rule="evenodd" d="M57.3 51.5A31.7 31.7 0 0 0 64 32c0-10.8-5.2-21.5-15.1-22.1-.4 0-.7.4-.6.8.6 2 .8 3.6 1 5.1l.4 2.4-2.8.7c-1.9.5-4 1.1-6.3 1-.5 0-.8.5-.6.9 3.3 7.5 13.6 8 16.2 6.5.6 2.5-2.2 4.7-6.4 4.7H0v1.1a43.5 43.5 0 0 0 57.3 18.4Z" fill="#14AFE9"/>
  <circle cx="26" cy="42" r="2.4" fill="#36386C"/>
</svg>
