<svg width="48" height="48" fill="none" xmlns="http://www.w3.org/2000/svg">
    <circle cx="24" cy="24" r="24" fill="#E9F7FD"/>
    <path fill-rule="evenodd" clip-rule="evenodd" d="M48 24c0 13.5-11.08 24-24 24S0 37.5 0 24h37.32c3.15 0 5.3-1.64 4.83-3.53-1.97 1.06-9.65.76-12.16-4.88-.14-.3.12-.63.45-.63 1.78.04 3.32-.38 4.72-.77.75-.2 1.45-.4 2.14-.51-.12-.57-.2-1.17-.29-1.8-.15-1.13-.32-2.4-.8-3.87-.1-.3.13-.63.45-.6C44.08 7.85 48 15.92 48 24Z" fill="#14AFE9"/>
    <path fill-rule="evenodd" clip-rule="evenodd" d="M43.03 38.62A32.63 32.63 0 0 1 28.5 42C15.92 42 5.06 34.98.01 24.82a24 24 0 0 0 43.02 13.8Z" fill="#8BD5F0"/>
    <circle cx="19.5" cy="31.5" r="1.8" fill="#36386C"/>
</svg>
