<svg width="16" height="16" fill="none" xmlns="http://www.w3.org/2000/svg">
<circle cx="8" cy="8" r="8" fill="#E9F7FD"/>
<path fill-rule="evenodd" clip-rule="evenodd" d="M16 8c0 4.5-3.7 8-8 8s-8-3.5-8-8h12.44c1.05 0 1.77-.55 1.61-1.18-.66.36-3.22.26-4.05-1.62-.05-.1.04-.21.15-.21.6.01 1.1-.13 1.57-.26.25-.07.48-.13.71-.17l-.1-.6c-.04-.38-.1-.8-.26-1.29-.03-.1.04-.2.15-.2C14.69 2.62 16 5.3 16 8Z" fill="#14AFE9"/>
<path fill-rule="evenodd" clip-rule="evenodd" d="M14.34 12.87C12.9 13.6 11.24 14 9.5 14 5.3 14 1.69 11.66 0 8.27a8 8 0 0 0 14.34 4.6Z" fill="#8BD5F0"/>
<circle cx="6.5" cy="10.5" r=".6" fill="#36386C"/></svg>
