<svg width="16" height="16" viewBox="0 0 16 16" fill="none" xmlns="http://www.w3.org/2000/svg">
<circle cx="8" cy="8" r="8" fill="#E9F7FD"/>
<path fill-rule="evenodd" clip-rule="evenodd" d="M16 7.99961C16 12.5026 12.3077 15.9996 8 15.9996C3.69231 15.9996 0 12.5026 0 7.99961H12.4401C13.4899 7.99961 14.2094 7.45222 14.0501 6.82285C13.394 7.17711 10.8344 7.07723 9.99628 5.19686C9.95076 5.09472 10.0353 4.98559 10.1471 4.98799C10.7414 5.00073 11.2532 4.85928 11.7205 4.73016C11.969 4.66151 12.2048 4.59635 12.4337 4.55969C12.3922 4.36906 12.3654 4.17122 12.3368 3.96058C12.2855 3.58233 12.2286 3.16282 12.0712 2.66968C12.0387 2.56798 12.1133 2.46129 12.2198 2.46778C14.6929 2.61842 16 5.30901 16 7.99961Z" fill="#14AFE9"/>
<path fill-rule="evenodd" clip-rule="evenodd" d="M14.3438 12.8747C12.8945 13.5936 11.2471 14 9.5 14C5.30656 14 1.68728 11.6588 0.00460815 8.27399C0.149032 12.5654 3.67342 16 8 16C10.5836 16 12.8812 14.7753 14.3438 12.8747Z" fill="#8BD5F0"/>
<circle cx="6.5" cy="10.5" r="0.600094" fill="#36386C"/>
</svg>
