<svg width="16" height="16" viewBox="0 0 16 16" fill="none" xmlns="http://www.w3.org/2000/svg">
    <path fill-rule="evenodd" clip-rule="evenodd" d="M4.19113 2.99438C4.19113 3.90007 3.53871 4.62306 2.49059 4.62306H2.47056C1.46125 4.62306 0.808838 3.90007 0.808838 2.99438C0.808838 2.07041 1.48129 1.36569 2.51063 1.36569C3.53996 1.36569 4.17234 2.06911 4.19113 2.99438ZM4 15V6H1V15H4ZM8.9472 15V9.97939C8.9472 9.71063 8.96684 9.44187 9.04544 9.25025C9.25788 8.71397 9.74294 8.15779 10.5583 8.15779C11.6255 8.15779 12.0516 8.98149 12.0516 10.1909V15H15V9.84377C15 7.0815 13.5461 5.79742 11.6058 5.79742C10.0413 5.79742 9.34016 6.66841 8.9472 7.28183V6.01019H6C6.03684 6.8538 6 15 6 15H8.9472Z" />
</svg>
