<svg xmlns="http://www.w3.org/2000/svg" width="16" height="16">
    <path fill-rule="evenodd" d="M8.2 15c2.48 0 5.95-.6 7.22-3.13.47-.97.58-2.09.58-3.14 0-1.38-.38-2.7-1.3-3.77.17-.5.26-1.04.26-1.59 0-.7-.16-1.4-.5-2.05-1.21 0-2.08.73-2.97 1.47l-.61.5a12.9 12.9 0 0 0-5.64.03L4.6 2.8c-.9-.75-1.76-1.47-2.99-1.47a4.56 4.56 0 0 0-.48 2.05c0 .54.08 1.08.25 1.6A5.64 5.64 0 0 0 0 8.73c0 1.05.19 2.18.67 3.14C2 14.42 5.67 15 8.2 15ZM4.66 7.67c.5 0 1 .08 1.5.15l.36.05a9.94 9.94 0 0 0 3.01 0l.4-.06c.49-.07.97-.14 1.47-.14 1.56 0 2.57 1.28 2.57 2.73 0 2.9-2.8 3.34-5.14 3.34h-1.6c-2.34 0-5.25-.45-5.25-3.34a2.69 2.69 0 0 1 2.68-2.73Zm6.3 4.35c.7 0 .99-.93.99-1.5 0-.56-.3-1.5-1-1.5-.69 0-.98.94-.98 1.5 0 .57.3 1.5.99 1.5Zm-5-1.5c0 .57-.29 1.5-.98 1.5-.7 0-.98-.93-.98-1.5 0-.56.29-1.5.98-1.5.7 0 .98.94.98 1.5Z" clip-rule="evenodd"/>
  </svg>
  