<svg xmlns="http://www.w3.org/2000/svg" width="16" height="16" fill="none">
    <path fill="#000" fill-rule="evenodd" d="M8 16A8 8 0 1 0 8 0a8 8 0 0 0 0 16Zm3-9.26a1.8 1.8 0 0 0-.5-1.21C10.2 5.2 9.75 5 9.2 5c-.77 0-1.62.5-2 1.75-.4 1.26-.31 3.32 1.08 6.12a1 1 0 0 1-1.8.89c-1.52-3.08-1.8-5.69-1.2-7.61C5.9 4.2 7.43 3 9.21 3a3.72 3.72 0 0 1 3.78 3.74 3.74 3.74 0 0 1-3.83 3.75c-.27 0-.53-.02-.8-.07a7.54 7.54 0 0 1-.37-2.22c.44.21.84.3 1.17.3 1.08 0 1.83-.77 1.83-1.75Zm-6.95.4a14.6 14.6 0 0 1-.97-1.73 1 1 0 0 1 1.81-.85 6.24 6.24 0 0 0-.84 2.58Z" clip-rule="evenodd"/>
  </svg>
  