<svg width="16" height="16" viewBox="0 0 16 16" fill="none" xmlns="http://www.w3.org/2000/svg">
<path fill-rule="evenodd" clip-rule="evenodd" d="M5.93407 14.7049C9.31419 15.6106 14.307 14.3607 15.7515 8.96981C16.6173 5.7386 15.1899 1.81154 11.9586 0.797664C11.8568 0.765701 11.7569 0.848827 11.7658 0.95522C11.7767 1.08499 11.7869 1.21082 11.7968 1.33313L11.7968 1.33358V1.3336C11.8613 2.13033 11.9137 2.77767 12.0596 3.39322C12.1111 3.61026 11.9313 3.82507 11.7097 3.79976L11.6107 3.78851C10.8912 3.70693 10.0786 3.61481 9.17235 3.23379C9.06661 3.18933 8.94822 3.2687 8.95807 3.38299C9.22898 6.52623 12.6618 7.55901 13.6644 7.24168C13.6714 7.23947 13.6778 7.23672 13.6844 7.23346C13.7075 7.22199 13.7327 7.24306 13.7243 7.26745C13.5109 7.88964 12.6846 8.23298 11.6613 7.9588L0.568035 4.98636C0.407995 4.94348 0.242581 5.03972 0.205401 5.20118C-0.893723 9.9743 2.62135 13.8172 5.93407 14.7049ZM5.99953 9.99905C6.55155 9.99905 6.99905 9.55155 6.99905 8.99953C6.99905 8.4475 6.55155 8 5.99953 8C5.4475 8 5 8.4475 5 8.99953C5 9.55155 5.4475 9.99905 5.99953 9.99905Z" fill="#9370DB"/>
</svg>
