<svg width="48" height="48" viewBox="0 0 48 48" fill="none" xmlns="http://www.w3.org/2000/svg">
    <circle cx="24" cy="24" r="24" fill="#E9F7FD" />
    <path d="M17.4203 47.177C29.6826 50.5304 42.2794 43.3371 45.9646 31.0452C46.1002 30.593 45.8335 30.1213 45.3858 29.9989L1.61696 18.0293C1.16931 17.9069 0.707285 18.1792 0.603142 18.6401C-2.22714 31.1657 5.15796 43.8235 17.4203 47.177Z" fill="#8BD5F0" />
    <path d="M38.5763 42.3968C42.5866 39.4352 45.681 35.2026 47.1076 30.0247C49.1762 22.5167 47.8625 13.3322 40.9033 11.0228C40.6032 10.9231 40.307 11.1646 40.32 11.4728C40.386 13.0475 40.1648 14.3858 39.9603 15.6228C39.8879 16.0608 39.8176 16.4861 39.7629 16.9046C39.7013 17.3761 39.2657 17.7286 38.7773 17.7111C38.3156 17.6946 37.8368 17.6982 37.3418 17.702C35.9016 17.7129 34.3241 17.7248 32.6286 17.2449C32.3097 17.1547 31.9833 17.396 32.0354 17.7151C32.869 22.8203 38.4683 25.1447 41.3342 25.3385C41.8859 25.3759 42.4111 25.8317 42.1239 26.2912C41.3794 27.4822 39.3052 27.9915 36.893 27.3629L1.62036 18.0337C1.17842 17.9185 0.778833 18.1794 0.897432 18.7497C3.1237 29.4526 11.8111 38.7738 23.8431 41.9092C28.8453 43.2127 33.8739 43.3129 38.5763 42.3968Z" fill="#14AFE9" />
    <circle cx="18" cy="31" r="2" fill="#36386C" />
</svg>
